<svg id="canlı_destek_icon" data-name="canlı destek icon" xmlns="http://www.w3.org/2000/svg" width="53" height="53" viewBox="0 0 53 53">
  <g id="Group_3611" data-name="Group 3611" transform="translate(9.938 9.938)">
    <g id="Group_3610" data-name="Group 3610">
      <path id="Path_108" data-name="Path 108" d="M117.531,96H97.656a1.656,1.656,0,0,0,0,3.313h19.875a1.656,1.656,0,0,0,0-3.312Z" transform="translate(-96 -96)" fill="#f26e21"/>
    </g>
  </g>
  <g id="Group_3613" data-name="Group 3613" transform="translate(9.938 16.563)">
    <g id="Group_3612" data-name="Group 3612">
      <path id="Path_109" data-name="Path 109" d="M110.906,160H97.656a1.656,1.656,0,0,0,0,3.313h13.25a1.656,1.656,0,1,0,0-3.312Z" transform="translate(-96 -160)" fill="#f26e21"/>
    </g>
  </g>
  <g id="Group_3615" data-name="Group 3615">
    <g id="Group_3614" data-name="Group 3614">
      <path id="Path_110" data-name="Path 110" d="M36.438,0H6.625A6.632,6.632,0,0,0,0,6.625V39.75a1.655,1.655,0,0,0,.954,1.5,1.68,1.68,0,0,0,.7.156,1.656,1.656,0,0,0,1.06-.384l9.477-7.9H36.438A6.632,6.632,0,0,0,43.063,26.5V6.625A6.632,6.632,0,0,0,36.438,0ZM39.75,26.5a3.316,3.316,0,0,1-3.313,3.313H11.594a1.654,1.654,0,0,0-1.06.384L3.313,36.216V6.625A3.316,3.316,0,0,1,6.625,3.313H36.438A3.316,3.316,0,0,1,39.75,6.625Z" fill="#f26e21"/>
    </g>
  </g>
  <g id="Group_3617" data-name="Group 3617" transform="translate(13.25 13.25)">
    <g id="Group_3616" data-name="Group 3616">
      <path id="Path_111" data-name="Path 111" d="M161.125,128a1.656,1.656,0,0,0,0,3.313,3.316,3.316,0,0,1,3.313,3.313v28.02l-5.591-4.472a1.669,1.669,0,0,0-1.033-.361H134.625a3.316,3.316,0,0,1-3.312-3.312v-1.656a1.656,1.656,0,0,0-3.312,0V154.5a6.632,6.632,0,0,0,6.625,6.625h22.6l7.827,6.264a1.657,1.657,0,0,0,2.693-1.3V134.625A6.632,6.632,0,0,0,161.125,128Z" transform="translate(-128 -128)" fill="#f26e21"/>
    </g>
  </g>
</svg>
