<svg xmlns="http://www.w3.org/2000/svg" width="44.719" height="53" viewBox="0 0 44.719 53">
  <g id="güvenli_ödeme_icon" data-name="güvenli ödeme icon" transform="translate(0 0)">
    <path id="Path_112" data-name="Path 112" d="M83.442,8.582,63.153.158a2.07,2.07,0,0,0-1.588,0L41.276,8.582A2.07,2.07,0,0,0,40,10.494v10.24A34.671,34.671,0,0,0,61.577,52.847a2.071,2.071,0,0,0,1.565,0A34.671,34.671,0,0,0,84.719,20.735V10.494A2.07,2.07,0,0,0,83.442,8.582ZM80.578,20.735A30.537,30.537,0,0,1,62.359,48.681,30.538,30.538,0,0,1,44.141,20.735V11.876L62.359,4.312l18.219,7.564ZM60.071,27.713l8.9-8.9A2.07,2.07,0,1,1,71.9,21.742L61.535,32.1a2.07,2.07,0,0,1-2.928,0l-5.786-5.786a2.07,2.07,0,0,1,2.928-2.928Z" transform="translate(-40 0)" fill="#f26e21"/>
  </g>
</svg>
