<svg id="instagram_icon" data-name="instagram icon" xmlns="http://www.w3.org/2000/svg" width="33.993" height="33.992" viewBox="0 0 33.993 33.992">
  <g id="icons">
    <path id="instagram-_167_" data-name="instagram-[#167]" d="M293.976,7279.209a9.37,9.37,0,0,0-9.838,9.813c-.078,1.709-.533,14.62.786,18.006a8.565,8.565,0,0,0,4.947,4.933,12.371,12.371,0,0,0,4.1.784c15.06.682,20.643.311,23-5.717a12.3,12.3,0,0,0,.785-4.1c.688-15.1-.112-18.371-2.736-20.992-2.082-2.076-4.531-3.491-21.046-2.729m.139,30.5a9.384,9.384,0,0,1-3.141-.582,5.522,5.522,0,0,1-3.21-3.2c-1-2.572-.671-14.792-.582-16.769a7.22,7.22,0,0,1,1.847-5.074c1.691-1.686,3.876-2.514,18.754-1.841a7.256,7.256,0,0,1,5.085,1.841c1.691,1.688,2.53,3.89,1.847,18.71a9.308,9.308,0,0,1-.582,3.133c-1.531,3.923-5.052,4.468-20.019,3.781m13.833-22.739a2.03,2.03,0,1,0,2.03-2.025,2.028,2.028,0,0,0-2.03,2.025m-15.683,9.006a8.684,8.684,0,1,0,8.684-8.662,8.674,8.674,0,0,0-8.684,8.662m3.048,0a5.637,5.637,0,1,1,5.637,5.624,5.631,5.631,0,0,1-5.637-5.624" transform="translate(-284 -7279)" fill="#f26e21" fill-rule="evenodd"/>
  </g>
</svg>
