<svg id="kargo_icon" data-name="kargo icon" xmlns="http://www.w3.org/2000/svg" width="48.794" height="53" viewBox="0 0 48.794 53">
  <path id="Path_107" data-name="Path 107" d="M67.572,12.495a1.389,1.389,0,0,0-.134-.593,1.3,1.3,0,0,0-.906-.716L43.745.134a1.352,1.352,0,0,0-1.175,0L19.561,11.287A1.347,1.347,0,0,0,18.8,12.45V40.494a1.333,1.333,0,0,0,.761,1.208l23.01,11.153c.011,0,.011,0,.022.011a.4.4,0,0,1,.1.045c.011,0,.022.011.045.011l.1.034c.011,0,.022.011.034.011.034.011.078.011.112.022h.034c.045,0,.1.011.145.011a.638.638,0,0,0,.145-.011h.034a.4.4,0,0,0,.112-.022c.011,0,.022-.011.034-.011l.1-.034c.011,0,.022-.011.045-.011a.4.4,0,0,0,.1-.045c.011,0,.011,0,.022-.011L66.833,41.668a1.353,1.353,0,0,0,.761-1.208V12.528C67.572,12.517,67.572,12.506,67.572,12.495ZM43.152,2.83l19.956,9.676-7.349,3.568L35.8,6.4Zm0,19.352L23.2,12.506l9.531-4.62,19.956,9.676ZM21.485,14.665,41.81,24.52V49.5L21.485,39.644ZM44.495,49.5V24.52l9.542-4.631v6.533a1.342,1.342,0,1,0,2.685,0V18.58l8.166-3.96V39.6Z" transform="translate(-18.8)" fill="#f26e21"/>
</svg>
