<svg xmlns="http://www.w3.org/2000/svg" width="19.461" height="22.13" viewBox="0 0 19.461 22.13">
  <path id="secure" d="M1334.2,5060.09a.718.718,0,0,0-.515-.6l-8.76-2.474a.7.7,0,0,0-.382,0l-8.76,2.474a.718.718,0,0,0-.515.6c-.051.371-1.21,9.134,1.763,13.494a13.968,13.968,0,0,0,7.535,5.515.7.7,0,0,0,.334,0,13.967,13.967,0,0,0,7.535-5.515C1335.41,5069.22,1334.25,5060.46,1334.2,5060.09Zm-3.817,5.116-5.975,6.065a.7.7,0,0,1-1.007,0l-3.7-3.75a.73.73,0,0,1,0-1.022l.734-.745a.705.705,0,0,1,1.007,0l2.458,2.5,4.738-4.81a.705.705,0,0,1,1.007,0l.734.745a.731.731,0,0,1,.006,1.026Z" transform="translate(-1315.003 -5056.989)" fill="#311700"/>
</svg>
