<svg id="twitter_icon" data-name="twitter icon" xmlns="http://www.w3.org/2000/svg" width="35.489" height="34" viewBox="0 0 35.489 34">
  <rect id="background" width="34" height="34" transform="translate(1.489)" fill="none"/>
  <g id="Dribbble-Light-Preview" transform="translate(0 3.399)">
    <g id="icons" transform="translate(0 0)">
      <path id="twitter-_154_" data-name="twitter-[#154]" d="M14.691,7388.194a19.549,19.549,0,0,0,19.843-19.538c0-.3,0-.594-.02-.888a14.046,14.046,0,0,0,3.479-3.554,14.073,14.073,0,0,1-4,1.08,6.917,6.917,0,0,0,3.066-3.8,14.139,14.139,0,0,1-4.429,1.669,7.056,7.056,0,0,0-9.868-.3,6.807,6.807,0,0,0-2.017,6.561,19.918,19.918,0,0,1-14.374-7.172,6.807,6.807,0,0,0,2.16,9.164,7.034,7.034,0,0,1-3.166-.858v.086a6.9,6.9,0,0,0,5.6,6.73,7.039,7.039,0,0,1-3.148.117,6.967,6.967,0,0,0,6.515,4.769,14.129,14.129,0,0,1-8.661,2.945,14.544,14.544,0,0,1-1.661-.1,19.979,19.979,0,0,0,10.691,3.079" transform="translate(-4 -7361)" fill="#f26e21" fill-rule="evenodd"/>
    </g>
  </g>
</svg>
